<svg id="bss_laranja" data-name="bss laranja" xmlns="http://www.w3.org/2000/svg" width="1000" height="1000" viewBox="0 0 1000 1000">
  <metadata><?xpacket begin="﻿" id="W5M0MpCehiHzreSzNTczkc9d"?>
<x:xmpmeta xmlns:x="adobe:ns:meta/" x:xmptk="Adobe XMP Core 5.6-c145 79.163499, 2018/08/13-16:40:22        ">
   <rdf:RDF xmlns:rdf="http://www.w3.org/1999/02/22-rdf-syntax-ns#">
      <rdf:Description rdf:about=""
            xmlns:xmp="http://ns.adobe.com/xap/1.0/">
         <xmp:CreatorTool>Adobe Photoshop CC 2019 (Windows)</xmp:CreatorTool>
      </rdf:Description>
   </rdf:RDF>
</x:xmpmeta>
                                                                                                    
                                                                                                    
                                                                                                    
                                                                                                    
                                                                                                    
                                                                                                    
                                                                                                    
                                                                                                    
                                                                                                    
                                                                                                    
                                                                                                    
                                                                                                    
                                                                                                    
                                                                                                    
                                                                                                    
                                                                                                    
                                                                                                    
                                                                                                    
                                                                                                    
                                                                                                    
                           
<?xpacket end="w"?></metadata>
<defs>
    <style>
      .cls-1 {
        fill: #ff5a00;
        fill-rule: evenodd;
      }
    </style>
  </defs>
  <path class="cls-1" d="M843.638,310.906H747c-2.146-80.669-136.65-59.713-118.867-12.57,24.025,63.687,197.335,36.22,225.171,146,6.511,25.68,4.383,53.757-5.8,77.352-30.917,71.652-182.893,101.48-264.793,52.213-38.089-22.913-34.213-48.648-57.018-84.12-8.613-7.328-31.308-11.764-47.353-7.736-1.277,27.568-15.154,42.587-25.126,60.915C533.6,585.172,647.5,579.764,660.989,690.9c3.044,25.078-5.339,51.763-15.462,67.683-42.753,67.232-201.213,87.028-271.558,29.974-28.123-22.81-45.106-61.847-47.354-110.227h98.573c0.331,79.069,128.618,89.124,138.2,33.842,5.564-32.123-26.514-36.7-47.354-43.511-66.959-21.885-123.967-37.485-165.254-84.12L143,585.5V190.044c85.549-.88,232.653-13.5,286.054,19.338,66.682,41,43.614,137.292-17.4,166.306,14.364,0.881,44.615,21.787,47.354,29.007l46.387-.967c32.509,0.188,61.9,8.638,83.11,21.272,16.362,9.744,32.453,24.53,42.522,40.609,9.237,14.752,9.95,43.287,27.059,50.279,32.831,13.418,88.428,4.318,98.572-21.272,18.476-46.609-58.6-54.049-86.976-62.848-73.564-22.816-177.672-69.825-130.463-178.876C588.521,139.013,845.2,152.442,843.638,310.906ZM238.673,270.3v74.451c49.372,1.212,140.294,13.165,131.43-43.51C363.337,257.969,288.137,269.127,238.673,270.3Zm0,149.869v87.021c56.03,1.233,155.649,15.517,142.061-52.213C371.336,408.131,294.6,418.972,238.673,420.165Z"/>
</svg>
